Coordinates
version=1
nRows=8
nColumns=36
inDegrees=yes

Units are S.I. units (second, meters, Newtons, ...)
If the header above contains a line with 'inDegrees', this indicates whether rotational values are in degrees (yes) or radians (no).

endheader
time	pelvis_tilt	pelvis_list	pelvis_rotation	pelvis_tx	pelvis_ty	pelvis_tz	hip_flexion_r	hip_adduction_r	hip_rotation_r	knee_angle_r	knee_angle_r_beta	ankle_angle_r	subtalar_angle_r	mtp_angle_r	hip_flexion_l	hip_adduction_l	hip_rotation_l	knee_angle_l	knee_angle_l_beta	ankle_angle_l	subtalar_angle_l	mtp_angle_l	lumbar_extension	lumbar_bending	lumbar_rotation	arm_flex_r	arm_add_r	arm_rot_r	elbow_flex_r	pro_sup_r	arm_flex_l	arm_add_l	arm_rot_l	elbow_flex_l	pro_sup_l
      8.00000000	     15.25950169	     -1.59734627	      6.66534795	     -0.06669525	      0.77830779	      0.06096318	     26.22952416	    -12.16027004	     -8.22745334	      8.82233428	      0.15397878	     -3.80603080	      3.62092172	     -7.49999987	     16.45761615	      6.43682011	      2.97316917	     68.88100640	      1.20220035	     12.77266209	    -33.26701539	     -7.49999987	    -31.68061805	     -1.16845167	     -0.61709016	     95.53774430	      3.71844362	     64.35561877	    114.80857966	    108.28482550	     87.22526898	     21.17358697	     57.09601274	    145.86351402	    101.11385848
      8.01666670	     15.65174217	     -1.56805979	      7.21251243	     -0.07093885	      0.77202006	      0.06230280	     26.55127263	    -12.31602325	     -7.94711545	      8.17158728	      0.14262110	     -3.86924027	      3.99274863	     -7.49999987	     16.65887302	      6.62296638	      3.31025132	     70.89791898	      1.23740212	     13.52709655	    -33.46842264	     -7.49999987	    -32.73440199	     -1.12995991	     -0.71248025	     95.84734554	      3.59387688	     64.12346711	    115.60059352	    108.45842467	     87.81004324	     21.03433293	     59.04798622	    145.31840879	    101.25260515
      8.03333330	     16.08020525	     -1.55938873	      7.55312113	     -0.07218824	      0.76630311	      0.06185619	     26.72941865	    -12.33994173	     -8.14832168	      7.19748098	      0.12561974	     -3.93067403	      4.93805101	     -7.49999987	     16.79615588	      6.65796675	      3.42939160	     72.29047020	      1.26170672	     11.71751279	    -33.79025194	     -7.49999987	    -33.89556391	     -1.01350481	     -1.17217576	     96.10660002	      3.80543916	     63.96473770	    115.63826006	    107.92132697	     88.15365193	     19.82287091	     59.61283121	    144.21364490	    100.83534658
      8.05000000	     16.43175402	     -1.53071205	      8.15303609	     -0.06985266	      0.75798696	      0.06196051	     26.75717525	    -12.59188809	     -8.64713618	      6.41254403	      0.11192001	     -3.90207270	      6.05086996	     -7.49999987	     16.92490542	      6.84092132	      3.83516402	     74.16242884	      1.29437856	     11.21592894	    -33.90103530	     -7.49999987	    -34.80756246	     -0.87702208	     -1.41525539	     96.21886193	      3.90777271	     63.94914636	    116.17473674	    108.42849427	     88.19815588	     19.70985078	     60.59493693	    143.83003620	    100.89348479
      8.06666670	     16.71493840	     -1.38961752	      8.14884761	     -0.07010920	      0.74978673	      0.06090504	     26.69631224	    -12.77555690	     -8.12242496	      5.61112568	      0.09793262	     -3.96195826	      6.51784812	     -7.49999987	     17.93779211	      7.39838084	      3.96325562	     76.53484606	      1.33578506	     11.76329779	    -33.89117669	     -7.49999987	    -35.77924161	     -0.89545447	     -1.94791874	     96.50590824	      4.27305923	     63.92814251	    116.62211159	    108.42878300	     88.40479598	     18.46673470	     60.48969927	    143.02050695	    100.86907888
      8.08333330	     16.88473606	     -1.14565822	      8.50276746	     -0.07008943	      0.74366495	      0.06113937	     26.78296618	    -13.25035837	     -8.33808470	      4.78591326	      0.08352994	     -4.05080515	      6.98097351	     -7.49999987	     18.84575847	      8.02293000	      4.11954120	     78.52948636	      1.37059810	     12.58777031	    -33.76138273	     -7.49999987	    -36.56182458	     -0.80997608	     -2.85868668	     96.55015440	      5.13639098	     63.95684289	    116.69397620	    108.71655595	     88.56394880	     17.74723655	     60.44950651	    143.15349143	     99.02183178
      8.10000000	     16.91775120	     -0.95019416	      8.45025031	     -0.06983317	      0.73562602	      0.06099151	     27.09139712	    -13.58923314	     -8.09524956	      3.85877295	      0.06734829	     -4.36820911	      7.60119636	     -7.49999987	     19.56913840	      8.38759742	      3.90665870	     80.36111527	      1.40256605	     13.25899729	    -33.71445396	     -7.49999987	    -37.50007526	     -0.89525825	     -3.12159204	     97.08933454	      5.50482815	     64.20250392	    116.61125506	    108.47379565	     89.03457017	     17.44156867	     60.59448468	    143.69160577	     99.64635079
      8.11666670	     16.82139154	     -1.09886350	      8.22692809	     -0.06702470	      0.72534641	      0.06161296	     27.82586625	    -13.47885075	     -7.60598604	      3.76649685	      0.06573777	     -4.37185242	      7.68485625	     -7.49999987	     20.47150745	      8.28711250	      3.55834561	     82.67807094	      1.44300456	     13.81653989	    -33.80972623	     -7.49999987	    -38.44600780	     -0.75017001	     -3.05644308	     97.95473245	      6.08303868	     64.36231787	    116.92290545	    108.48977115	     89.78109639	     17.49025104	     60.95058621	    143.95252340	     99.72405916
